<svg xmlns="http://www.w3.org/2000/svg" width="148.456" height="40" viewBox="0 0 148.456 40">
  <g id="Logo" transform="translate(0.001 -0.011)">
    <g id="Group_44385" data-name="Group 44385" transform="translate(41.152 5.015)">
      <path id="Path_9595" data-name="Path 9595" d="M42.57,5.15h5.443V17.327h4.908L65.871,5.15h7.722Q72.526,6.344,60.107,17.968a18.074,18.074,0,0,0-2.074,2.068q14.65,13.736,15.56,14.76H65.871L53.018,22.756h-5V34.8H42.57Z" transform="translate(-42.57 -5.15)"/>
      <path id="Path_9596" data-name="Path 9596" d="M76.67,5.15h5.443V17.327h4.908L99.971,5.15h7.722q-1.066,1.194-13.486,12.818a18.074,18.074,0,0,0-2.074,2.068q14.65,13.736,15.56,14.76H99.971L87.118,22.756h-5V34.8H76.67Z" transform="translate(-43.466 -5.15)"/>
      <path id="Path_9597" data-name="Path 9597" d="M110.77,5.15h5.443V17.327h4.908L134.071,5.15h7.722q-1.066,1.194-13.486,12.818a18.075,18.075,0,0,0-2.074,2.068q14.65,13.736,15.56,14.76h-7.722L121.218,22.756h-5V34.8H110.77V5.15Z" transform="translate(-44.363 -5.15)"/>
      <path id="Path_9598" data-name="Path 9598" d="M149.664,29.97a2.679,2.679,0,0,1,2.95,2.97c-.029,1.918-1.013,2.892-2.97,2.931-1.85-.039-2.785-1.022-2.814-2.97C146.84,30.983,147.784,30.009,149.664,29.97Z" transform="translate(-45.311 -5.883)"/>
    </g>
    <g id="Group_44386" data-name="Group 44386" transform="translate(-0.001 0.011)">
      <path id="Path_9599" data-name="Path 9599" d="M44.5,22.254a17.291,17.291,0,0,0-6.767-11.787c-.4-3.45-.915-7.968-1.1-9.339-.3-2.322-1.665-.3-1.665-.3L30.4,6.7A26.008,26.008,0,0,0,11.792,8.163L8.724,3.042S7.731,1.079,7.2,3.129c-.389,1.526-1.811,7.415-2.522,10.359A17.45,17.45,0,0,0,.088,26.928c1.1,10.408,11.548,14.129,23.807,12.837s21.694-7.113,20.594-17.521Z" transform="translate(0.001 -0.011)" fill="#ef5300"/>
      <ellipse id="Ellipse_30" cx="0.633" cy="3.252" rx="0.633" ry="3.252" transform="matrix(0.358, -0.934, 0.934, 0.358, 1.006, 25.542)" fill="#ffb612"/>
      <path id="Path_9592" d="M38.409,24.266c-2.571,1.217-4.9,1.986-5.19,1.714s1.538-1.47,4.109-2.687,4.888-1.986,5.2-1.714-1.538,1.47-4.109,2.687Z" transform="translate(-0.872 -0.624)" fill="#ffb612"/>
      <ellipse id="Ellipse_31" cx="0.633" cy="3.252" rx="0.633" ry="3.252" transform="matrix(0.276, -0.961, 0.961, 0.276, 1.089, 28.188)" fill="#ffb612"/>
      <path id="Path_9593" d="M38.827,27.331c-2.668,1.091-5.034,1.733-5.287,1.441s1.7-1.4,4.372-2.483,5.034-1.733,5.287-1.441-1.7,1.4-4.372,2.493Z" transform="translate(-0.88 -0.716)" fill="#ffb612"/>
      <path id="Path_9600" data-name="Path 9600" d="M27.841,22.415a.728.728,0,0,0-1.032.078,7.138,7.138,0,0,1-4.187,2.269,4.449,4.449,0,0,1-3.145-1.091L20.8,21.9a.523.523,0,0,0,.1-.321.477.477,0,0,0-.516-.458l-3.5.185a.427.427,0,0,0-.3.127.5.5,0,0,0-.029.691l1.509,1.626a4.381,4.381,0,0,1-3.048,1.47,5.038,5.038,0,0,1-3.252-1.626.732.732,0,1,0-1.11.954,6.467,6.467,0,0,0,4.314,2.123h.1a5.515,5.515,0,0,0,3.778-1.646A5.8,5.8,0,0,0,22.3,26.232a2.876,2.876,0,0,0,.409-.019,8.517,8.517,0,0,0,5.18-2.765.728.728,0,0,0-.078-1.032Z" transform="translate(-0.275 -0.614)" fill="#fff"/>
      <g id="Group_44383" transform="translate(26.038 14.174)">
        <circle id="Ellipse_29" cx="2.084" cy="2.084" r="2.084" transform="translate(0.01)" fill="#fff"/>
        <circle id="Ellipse_32" cx="1.461" cy="1.461" r="1.461" transform="translate(0 0.584)"/>
      </g>
      <g id="Group_44382" transform="translate(8.102 15.174)">
        <circle id="Ellipse_28" cx="2.084" cy="2.084" r="2.084" fill="#fff"/>
        <circle id="Ellipse_33" cx="1.461" cy="1.461" r="1.461" transform="translate(0 0.574)"/>
      </g>
    </g>
  </g>
</svg>
