<svg id="Slack-icon" xmlns="http://www.w3.org/2000/svg" width="67" height="67" viewBox="0 0 67 67">
  <circle id="Ellipse_1968" data-name="Ellipse 1968" cx="33.5" cy="33.5" r="33.5" fill="#fff"/>
  <g id="Group_47394" data-name="Group 47394" transform="translate(13.291 13.321)">
    <path id="Path_18440" data-name="Path 18440" d="M14.831.148a4.053,4.053,0,0,0,0,8.105h4.045V4.2A4.049,4.049,0,0,0,14.831.148m0,10.807H4.045a4.053,4.053,0,0,0,0,8.106H14.831a4.053,4.053,0,0,0,0-8.106" transform="translate(0 -0.148)" fill="#36c5f0"/>
    <path id="Path_18441" data-name="Path 18441" d="M50.734,15.008a4.045,4.045,0,1,0-8.09,0v4.053h4.045a4.049,4.049,0,0,0,4.045-4.053m-10.786,0V4.2a4.045,4.045,0,1,0-8.09,0V15.008a4.045,4.045,0,1,0,8.09,0" transform="translate(-10.286 -0.148)" fill="#2eb67d"/>
    <path id="Path_18442" data-name="Path 18442" d="M35.9,50.982a4.053,4.053,0,0,0,0-8.105H31.858v4.053A4.049,4.049,0,0,0,35.9,50.982m0-10.807H46.689a4.053,4.053,0,0,0,0-8.106H35.9a4.053,4.053,0,0,0,0,8.105" transform="translate(-10.286 -10.454)" fill="#ecb22e"/>
    <path id="Path_18443" data-name="Path 18443" d="M0,36.122a4.045,4.045,0,1,0,8.09,0V32.069H4.045A4.049,4.049,0,0,0,0,36.122m10.786,0V46.929a4.045,4.045,0,1,0,8.09,0V36.122a4.045,4.045,0,1,0-8.09,0" transform="translate(0 -10.454)" fill="#e01e5a"/>
  </g>
</svg>
