<svg id="Trello-icon" xmlns="http://www.w3.org/2000/svg" width="67" height="67" viewBox="0 0 67 67">
  <circle id="Ellipse_1968" data-name="Ellipse 1968" cx="33.5" cy="33.5" r="33.5" fill="#0277bd"/>
  <path id="Path_18444" data-name="Path 18444" d="M16.325,30.651a2.865,2.865,0,0,1-2.865,2.865h-8.6A2.865,2.865,0,0,1,2,30.651V4.865A2.865,2.865,0,0,1,4.865,2h8.6a2.865,2.865,0,0,1,2.865,2.865ZM36.381,19.19a2.865,2.865,0,0,1-2.865,2.865h-8.6a2.865,2.865,0,0,1-2.865-2.865V4.865A2.865,2.865,0,0,1,24.921,2h8.6a2.865,2.865,0,0,1,2.865,2.865Z" transform="translate(14.284 15.717)" fill="#eceff1"/>
</svg>
