<svg id="Xd-icon" xmlns="http://www.w3.org/2000/svg" width="66.949" height="66.949" viewBox="0 0 66.949 66.949">
  <path id="Path_18436" data-name="Path 18436" d="M0,33.475A33.475,33.475,0,1,1,33.475,66.949,33.474,33.474,0,0,1,0,33.475Z" fill="#470137"/>
  <path id="Path_18437" data-name="Path 18437" d="M2.4,33.513A31.113,31.113,0,1,1,33.513,64.625,31.111,31.111,0,0,1,2.4,33.513Z" transform="translate(-0.038 -0.038)" fill="#470137"/>
  <path id="Path_18438" data-name="Path 18438" d="M30.75,40.738,24.036,27.717,30.367,15.56c.121-.217.049-.36-.143-.36h-3.86c-.236,0-.31.118-.428.3l0,.007q-.6,1.279-1.2,2.568-1.636,3.444-3.186,6.928h-.047c-1.058-2.363-2.169-4.687-3.282-7.02q-.6-1.26-1.2-2.523c-.072-.215-.192-.264-.431-.264H12.455a.213.213,0,0,0-.168.36l6.354,12.566-6.57,12.636c-.121.145-.1.336.143.336H16.2a.461.461,0,0,0,.431-.264c1.535-3.165,3.118-6.666,4.557-9.88h.047q2.324,4.941,4.7,9.857a.471.471,0,0,0,.5.311h4.173c.192,0,.264-.192.143-.384ZM32.214,31.6c0-5.587,3.6-9.952,9.495-9.952a10.5,10.5,0,0,1,1.248.049V15.464a.239.239,0,0,1,.239-.241h3.86c.192,0,.241.072.241.192v21.92a17.138,17.138,0,0,0,.12,2.349c0,.168,0,.192-.143.264a14.285,14.285,0,0,1-6.139,1.39c-5.2,0-8.921-3.213-8.921-9.735Zm10.743-6.139a3.291,3.291,0,0,0-1.392-.241c-3.021,0-5.035,2.327-5.035,6.188,0,4.412,2.062,6.186,4.747,6.186a4.519,4.519,0,0,0,1.654-.263V25.463h.025Z" transform="translate(3.767 5.297)" fill="#ff61f6" fill-rule="evenodd"/>
</svg>
